<svg xmlns="http://www.w3.org/2000/svg" xmlns:xlink="http://www.w3.org/1999/xlink" version="1.1" height="22" width="22" style="" xml:space="preserve"><rect id="backgroundrect" width="100%" height="100%" x="0" y="0" fill="none" stroke="none" style="" class=""/>


<g class="currentLayer" style=""><title>Layer 1</title><path horiz-adv-x="1403" d="M-0.006774068252717281,5.173515859896663 h3.1834516240536446 v-1.9539335635021164 h-3.1834516240536446 v1.9539335635021164 zM-0.006774068252717281,1.2648490013519484 h3.1834516240536446 v-1.9547332950425995 h-3.1834516240536446 v1.9547332950425995 zM-0.006774068252717281,12.990807485852388 h3.1834516240536446 v-1.9539335635021164 h-3.1834516240536446 v1.9539335635021164 zM-0.006774068252717281,9.082161672874527 h3.1834516240536446 v-1.9539335635021164 h-3.1834516240536446 v1.9539335635021164 zM4.768720473706101,5.173515859896663 h3.1834516240536446 v-1.9539335635021164 h-3.1834516240536446 v1.9539335635021164 zM4.768720473706101,9.082161672874527 h3.1834516240536446 v-1.9539335635021164 h-3.1834516240536446 v1.9539335635021164 zM4.768720473706101,1.2648490013519484 h3.1834516240536446 v-1.9547332950425995 h-3.1834516240536446 v1.9547332950425995 zM4.768720473706101,16.90025303037073 h3.1834516240536446 v-1.9547332950425995 h-3.1834516240536446 v1.9547332950425995 zM4.768720473706101,12.990807485852388 h3.1834516240536446 v-1.9539335635021164 h-3.1834516240536446 v1.9539335635021164 zM9.543580803908219,5.173515859896663 h3.182800271438654 v-1.9539335635021164 h-3.182800271438654 v1.9539335635021164 zM9.543580803908219,1.2648490013519484 h3.182800271438654 v-1.9547332950425995 h-3.182800271438654 v1.9547332950425995 zM9.543580803908219,9.082161672874527 h3.182800271438654 v-1.9539335635021164 h-3.182800271438654 v1.9539335635021164 zM14.319092486725324,5.173515859896663 h3.182800271438654 v-1.9539335635021164 h-3.182800271438654 v1.9539335635021164 zM14.319092486725324,1.2648490013519484 h3.182800271438654 v-1.9547332950425995 h-3.182800271438654 v1.9547332950425995 zM14.319092486725324,12.990807485852388 h3.182800271438654 v-1.9539335635021164 h-3.182800271438654 v1.9539335635021164 zM14.319092486725324,9.082161672874527 h3.182800271438654 v-1.9539335635021164 h-3.182800271438654 v1.9539335635021164 zM19.094604169542425,5.173515859896663 h3.182800271438654 v-1.9539335635021164 h-3.182800271438654 v1.9539335635021164 zM19.094604169542425,9.082161672874527 h3.182800271438654 v-1.9539335635021164 h-3.182800271438654 v1.9539335635021164 zM19.094604169542425,1.2648490013519484 h3.182800271438654 v-1.9547332950425995 h-3.182800271438654 v1.9547332950425995 zM19.094604169542425,16.90025303037073 h3.182800271438654 v-1.9547332950425995 h-3.182800271438654 v1.9547332950425995 zM-0.006774068252717281,16.90025303037073 h3.1834516240536446 v-1.9547332950425995 h-3.1834516240536446 v1.9547332950425995 zM4.768720473706101,20.808120157374965 h3.1834516240536446 v-1.9547332950425995 h-3.1834516240536446 v1.9547332950425995 zM9.543580803908219,12.990807485852388 h3.182800271438654 v-1.9539335635021164 h-3.182800271438654 v1.9539335635021164 zM14.319092486725324,16.90025303037073 h3.182800271438654 v-1.9547332950425995 h-3.182800271438654 v1.9547332950425995 zM19.094604169542425,20.808120157374965 h3.182800271438654 v-1.9547332950425995 h-3.182800271438654 v1.9547332950425995 zM19.094604169542425,12.990807485852388 h3.182800271438654 v-1.9539335635021164 h-3.182800271438654 v1.9539335635021164 z" id="svg_1" class="" transform="rotate(-179.9204559326172 11.135315895080566,10.059118270874023) "/></g></svg>
