<svg xmlns="http://www.w3.org/2000/svg" xmlns:xlink="http://www.w3.org/1999/xlink" version="1.1" height="24" width="24" style="" xml:space="preserve"><rect id="backgroundrect" width="100%" height="100%" x="0" y="0" fill="none" stroke="none" style="" class=""/>


<g class="currentLayer" style=""><title>Layer 1</title><path horiz-adv-x="1027" d="M11.887995329172222,-8.384581256798017e-15 c-6.562177781573902,0 -11.887995892530316,5.273581697283193 -11.887995892530316,11.77139370196738 s5.325818110956413,11.77139370196738 11.887995892530316,11.77139370196738 c6.562177781573902,0 11.887995892530316,-5.273581697283193 11.887995892530316,-11.77139370196738 s-5.325818110956413,-11.77139370196738 -11.887995892530316,-11.77139370196738 zM2.377593795032326,11.771393701967376 c0,-5.20296085200204 4.255897034593982,-9.417110173719987 9.510401534139927,-9.417110173719987 c2.1992741789966486,0 4.493625139681135,0.7662960194745128 6.173073943715828,2.260920376858751 l-13.425853798614169,13.195732363844703 c-1.7074777766843612,-2.0334973157838463 -2.2575975786632045,-3.8618350912085457 -2.2575975786632045,-6.039542566983465 zM11.887995329172222,21.18850387568737 c-2.1992741789966486,0 -4.2202281785995615,-0.7415906932608951 -5.82510979314321,-1.9893772419353155 l13.326438912818906,-13.195732363844703 c1.2601228408948544,1.5891365937130737 2.0090724144642276,3.5902680170155232 2.0090724144642276,5.767975492790445 c0,5.20296085200204 -4.255897034593982,9.417110173719987 -9.510401534139927,9.417110173719987 zM15.023335972238684,5.228767384616644 c-0.05899821586104717,-0.29500361911852646 -0.8675244191724567,-1.7391639962137506 -3.147776541507796,-1.8014539756786858 c-1.9853092441868636,0 -3.7781271688957188,1.5627794578979732 -3.593323933919209,3.4725825677266555 c0.149110278403716,1.5410665403827153 0.8842261199860668,2.356222609083927 2.1589539113759266,3.0828512588530343 c1.2464337123780742,-1.3269776524676775 3.826906739525929,-3.8080196131773447 4.5453931820297955,-4.609961205066628 zM7.4376307276735405,12.971780496859893 c-1.7538472894771107,0.570592490602141 -2.7487191647810056,1.3098371354435059 -2.7487191647810056,2.6095718991213683 l0.024847696304223496,0.08639682393888079 zM12.948806386909027,12.230333439216531 l-5.096621610613873,5.122237634955243 l11.210022522274166,-0.03490345505760149 v-1.7362912838633378 c0,-2.30927770142415 -4.506928658943922,-3.4027517183418685 -6.9054664199418445,-3.4027517183418685 z" id="svg_1" class=""/></g></svg>
