<svg xmlns="http://www.w3.org/2000/svg" xmlns:xlink="http://www.w3.org/1999/xlink" version="1.1" height="22" width="22" style="" xml:space="preserve"><rect id="backgroundrect" width="100%" height="100%" x="0" y="0" fill="none" stroke="none" style="" class=""/>
		
		
<g class="currentLayer" style=""><title>Layer 1</title><path horiz-adv-x="1075" d="M10.816296118583287,0.529859464059128 c-0.049688320412010406,0.01769220760722055 -0.11783488155836028,0.05031387568780315 -0.1501932155596514,0.07345188293388445 c-0.0323583340012818,0.020401824988506706 -0.6851211554720461,0.5399576754119423 -1.451093015774352,1.1520124250671528 l-1.3968014177219914,1.1112087750901407 h-1.451093015774352 c-1.5978337731037315,0 -1.5978337731037315,0 -1.856610184768097,0.13872178397133672 c-0.18137816506436705,0.0992995075612485 -0.41476885444739076,0.35498644182476646 -0.5025696059111203,0.5508492746896776 c-0.12823738642209484,0.28698035852973464 -0.13286322914891704,0.32098340017724564 -0.13286322914891704,1.4362831662156021 v1.0160002584771095 l-1.6417228662923598,1.3098077902126324 c-0.9011592933578687,0.7181548655459592 -1.6787070430204625,1.3342740412730705 -1.7237469556191785,1.3669222742299367 l-0.08549911264355602,0.062560283656163 l0.07279496895965186,0.05305005794537621 c0.038134996138192115,0.029912050699296575 0.951998433179966,0.7562223332653943 2.029910048875377,1.6144537914733006 l1.9582884644122904,1.5614302984042134 l0.010402504863731756,-4.008267923458066 l0.011553324273818905,-4.011004105715638 l0.04736411650536378,-0.0911175256648146 c0.05891744077918172,-0.12241094993103942 0.16637238256029022,-0.22712969225486299 0.2842072641186547,-0.2856255498390967 c0.09590161750728544,-0.047604258306516996 0.10745494178110651,-0.047604258306516996 6.197207653493709,-0.047604258306516996 c6.090903531122693,0 6.102456855396511,0 6.198358472903796,0.047604258306516996 c0.11783488155836028,0.058495857584235575 0.2241390039293831,0.16321459990805384 0.28535808352873665,0.2856255498390967 l0.04621329709527546,0.0911175256648146 l0.010402504863731756,4.011004105715638 l0.011553324273818905,4.008267923458066 l4.054066000700318,-3.2316437652041747 l-0.12361154369527227,-0.09385370792238953 c-0.06931994564291315,-0.05305005794537621 -0.8433926719887745,-0.6664596162912169 -1.7214453167990051,-1.3682770829205801 l-1.6001354119239066,-1.2758047485651227 v-1.0146454497864683 c0,-1.1152997660383581 -0.0034750233167347147,-1.1493028076858671 -0.13171240973882947,-1.4362831662156021 c-0.0878007514637325,-0.19586283286492048 -0.3211914408467628,-0.45154976712840716 -0.5037204253212073,-0.5508492746896776 c-0.2587989767508368,-0.13872178397133672 -0.2587989767508368,-0.13872178397133672 -1.8554593653580083,-0.13872178397133672 h-1.451093015774352 l-1.4072039225857218,-1.1207455656772163 c-0.7729219069357841,-0.6188553579847327 -1.451093015774352,-1.146593190304582 -1.5065579983232684,-1.1778600496945189 c-0.12823738642209484,-0.06800608329502202 -0.38356133985620267,-0.08705309959288768 -0.5245254350486814,-0.03809403259572723 zM5.952346599305565,8.730038300748104 v2.82769825638226 h1.0478774856007782 v-2.437327399343064 h1.6059120740608164 v-1.0812967243908458 h-1.6059120740608164 v-1.0568039084541234 h1.7353002798929984 v-1.0812967243908458 h-2.783200330580248 v2.829053065072904 zM10.158907454385703,5.9281876689932105 c-0.006927481546996989,0.01631083404029044 -0.31886723694011415,1.2758047485651227 -0.6966744797458652,2.801850631754895 c-0.37663385830920093,1.5233362658085041 -0.6885736137022962,2.784158424147675 -0.695501095249291,2.797759640806678 c-0.006927481546996989,0.023111442369793015 0.10513073787446034,0.029912050699296575 0.5164245690051127,0.029912050699296575 c0.40089132626693474,0 0.5256762544587767,-0.006800608329502415 0.5326037360057815,-0.029912050699296575 c0.004625842726822117,-0.013601216659004442 0.06239246409591641,-0.2733791418707354 0.12823738642209484,-0.5753420906263996 l0.12246072428518537,-0.544048666360193 l0.655064460290951,0.004090990948216309 l0.655064460290951,0.006800608329502415 l0.0358107922315442,0.16050498252676668 c0.019631625230903216,0.08705309959288768 0.0785716310965595,0.3454762161139712 0.12938820583218238,0.5685414822969126 l0.08895157087381869,0.40939130846077376 h2.1454432916135664 l0.4043663495836743,-0.8963254908036449 c0.22298818451929509,-0.4950895993630073 0.40784137290039346,-0.8976802994942774 0.408992192310481,-0.8976802994942774 c0.0034750233167347147,0 0.18022734565428614,0.40259070013127857 0.39858968744675505,0.8976802994942774 l0.39396384471993506,0.8963254908036449 h0.6053987049654171 c0.3327447651205728,0 0.6042478855553354,-0.004090990948216309 0.6042478855553354,-0.012246407968361522 c0,-0.005445799638859289 -0.2980847922991209,-0.6528583996322096 -0.6631653263345028,-1.4362831662156021 c-0.3650805340353907,-0.7847795752740534 -0.6643161457446012,-1.4390193484731746 -0.6643161457446012,-1.4526205651321789 c0,-0.01769220760722055 0.2899839262555646,-0.6392571829732052 0.6423603166070238,-1.3873240992184437 c0.3535272097615678,-0.7453572988639535 0.6423603166070238,-1.3574120485191474 0.6423603166070238,-1.361476474591076 s-0.26110061557101105,-0.004090990948216309 -0.5799678525111455,-0.0013548086906430478 l-0.5811412370076909,0.005445799638859289 l-0.37433221948902506,0.8323838335805529 c-0.20680901751865863,0.45973174902486186 -0.38356133985620267,0.831029024889918 -0.389338001993106,0.8242284165604168 c-0.008078300957084247,-0.005445799638859289 -0.1779257068341083,-0.38218887514277583 -0.37895806221584716,-0.837829633219414 l-0.3616280758051187,-0.829674216199267 h-0.6053987049654171 c-0.3338955845306591,0 -0.6019236816486673,0.006800608329502415 -0.5984712234184143,0.01631083404029044 c0.004625842726822117,0.010891599277718388 0.29691140780255576,0.6419668003544897 0.6469861593338547,1.4050163068256638 l0.6400586777868583,1.3846144818371577 l-0.3674047379420395,0.7766241582539066 c-0.8849801263572281,1.8688124819224554 -0.9207909185887719,1.9422643648563351 -0.9335176273591503,1.9000793413123922 c-0.006927481546996989,-0.025847624627365753 -0.31078893598303,-1.2499571239377572 -0.6770202894285056,-2.7229529491821545 c-0.36623135344547625,-1.4743771988113283 -0.6700928078814918,-2.698486698121719 -0.6758694700184023,-2.7202433318008694 c-0.011553324273818905,-0.036712659028798014 -0.05891744077918172,-0.039448841286370176 -0.5788170331010484,-0.039448841286370176 c-0.4344004796782998,0 -0.5695879127338591,0.006800608329502415 -0.5753645748707779,0.027202433318009405 zM10.93990766227857,8.471615184227023 c0.10513073787446034,0.47195159211693655 0.19293148933818632,0.8663868752280784 0.19293148933818632,0.8786332831964241 c0,0.013601216659004442 -0.15827151651673285,0.023111442369793015 -0.41939469717422,0.023111442369793015 c-0.32811892239375695,0 -0.4182213126776621,-0.006800608329502415 -0.41129383113066265,-0.029912050699296575 c0.005776662136909449,-0.013601216659004442 0.10050489514763673,-0.429793133449281 0.21143486024547692,-0.9207917418640812 c0.12823738642209484,-0.5698962909875449 0.20680901751865863,-0.8745688571244944 0.21603813788582338,-0.8500760411877726 c0.009251685453644406,0.023111442369793015 0.10282909905428396,0.4270835160679947 0.2102614757489144,0.8990351081849228 v0 zM0.23575272258542124,15.235510854700397 c0,5.11676708116692 0.004625842726822117,6.048450422308717 0.030034130094636263,6.033494396959069 c0.015028347590553494,-0.010891599277718388 1.6717569963869938,-1.3424294582932235 3.682035420031468,-2.962355614281661 l3.652001289936834,-2.9433085979837967 l-0.04851493591545142,-0.047604258306516996 c-0.026581671864372984,-0.028557242008651767 -1.665980334250085,-1.4036349332587335 -3.643922988979749,-3.0575641308946917 c-1.9779200896431937,-1.6525478240690281 -3.6138888588851157,-3.02217971568025 -3.633520484116019,-3.041226731978114 c-0.0358107922315442,-0.03264823295686805 -0.038134996138192115,0.25433212557286733 -0.038134996138192115,6.017183562918779 v0.0013548086906430478 zM18.15613205577498,12.267709440779878 c-2.0183567246015586,1.6906418566647623 -3.6704820957576496,3.0793207645738416 -3.6704820957576496,3.088830990284629 c-0.002301638820174915,0.009510225710788476 1.6498237323359186,1.347875257932074 3.669331276347562,2.9732206486830925 l3.67165548025421,2.956909814642802 l0.005776662136909449,-3.0235610892471807 c0.002301638820174915,-1.6647942320373907 0.002301638820174915,-4.3850375638382575 0,-6.047095613618073 l-0.005776662136909449,-3.02217971568025 l-3.6704820957576496,3.0738749649349817 zM4.251706292234028,18.744624752723517 c-2.0599667440564846,1.662058049779819 -3.7594562317179374,3.034426123648612 -3.7767862181286653,3.054827948637119 c-0.027732491274460133,0.027202433318009405 -0.020805009727463575,0.036712659028798014 0.04043663495836783,0.07616150031516716 c0.07162158446309053,0.039448841286370176 0.4159196738574782,0.042158458667657155 10.520452570722123,0.042158458667657155 c10.00402800171701,0 10.449981805669122,-0.0027096173812860324 10.519301751312035,-0.042158458667657155 c0.03696161164163178,-0.023111442369793015 0.06354328350600368,-0.05031387568780315 0.05661580195900972,-0.062560283656163 c-0.028883310684548007,-0.05169524925473165 -7.552399051760773,-6.09469987192459 -7.574354880898321,-6.086544454904445 c-0.015028347590553494,0.005445799638859289 -0.6030745010587749,0.4950895993630073 -1.31015148566835,1.0853877153390614 c-0.7059036001130359,0.5916529246666951 -1.32633065266899,1.0976075584311362 -1.38062225072135,1.1248099917491452 c-0.13979071069591376,0.0693608919856648 -0.4817645961836568,0.0693608919856648 -0.6204044874695052,0 c-0.053140778642273595,-0.027202433318009405 -0.6793444933351379,-0.5358932493400296 -1.392175574995167,-1.1329919736455778 s-1.3043748235314394,-1.0840063417721308 -1.3159281478052594,-1.0812967243908458 c-0.010402504863731756,0 -1.706416969208453,1.35876685720979 -3.7663837132649354,3.02217971568025 z" id="svg_1" class=""/></g></svg>