<svg xmlns="http://www.w3.org/2000/svg" xmlns:xlink="http://www.w3.org/1999/xlink" version="1.1" height="24" width="24" style="enable-background:new 0 0 16 16;" xml:space="preserve"><rect id="backgroundrect" width="100%" height="100%" x="0" y="0" fill="none" stroke="none" style="" class=""/>
		
		
<g class="currentLayer" style=""><title>Layer 1</title><path horiz-adv-x="1058" d="M21.367184209469567,5.131725416363075 v-4.709301282789083 h-11.453740389813461 v4.709301282789083 c-1.265646839877436,0 -2.290748077962692,1.0536935501881133 -2.290748077962692,2.3546387153085426 v9.418578713406166 c0,1.3009451651204293 1.0251012380852562,2.3546387153085426 2.290748077962692,2.3546387153085426 v1.1773193576542713 c0,0.6381171574651989 -0.3928612309867059,1.1773193576542713 -0.8590305292360098,1.1773193576542713 h-4.008809136434711 c-0.46616929824930387,0 -0.8590305292360098,-0.539202200189073 -0.8590305292360098,-1.1773193576542713 v-1.1773193576542713 c0.6322400070985509,0 1.145374038981346,-0.5274430793940091 1.145374038981346,-1.1773193576542713 v-14.127879996195249 c0,-0.6498762782602622 -0.5131340318827958,-1.1773193576542713 -1.145374038981346,-1.1773193576542713 h-2.290748077962692 c-0.6322400070985509,0 -1.145374038981346,0.5274430793940091 -1.145374038981346,1.1773193576542713 v14.127879996195249 c0,0.6498762782602622 0.5131340318827958,1.1773193576542713 1.145374038981346,1.1773193576542713 v1.1773193576542713 c0,1.9472913219249721 1.4122405354472414,3.531981925134812 3.1497786071987015,3.531981925134812 h4.008809136434711 c1.7375380717514606,0 3.1497786071987015,-1.5846667510378414 3.1497786071987015,-3.531981925134812 v-1.1773193576542713 h9.162992311850767 c1.265646839877436,0 2.290748077962692,-1.0536935501881133 2.290748077962692,-2.3546387153085426 v-9.418578713406166 c0,-1.3009451651204293 -1.0251012380852562,-2.3546387153085426 -2.290748077962692,-2.3546387153085426 zM12.204191897618797,2.777086701054532 h6.872244233888076 v4.709301282789083 h-6.872244233888076 v-4.709301282789083 zM11.05881785863745,16.90496669724978 c-0.6322400070985509,0 -1.145374038981346,-0.5274430793940091 -1.145374038981346,-1.1773193576542713 s0.5131340318827958,-1.1773193576542713 1.145374038981346,-1.1773193576542713 c0.6322400070985509,0 1.145374038981346,0.5274430793940091 1.145374038981346,1.1773193576542713 s-0.5131340318827958,1.1773193576542713 -1.145374038981346,1.1773193576542713 zM11.05881785863745,12.195665414460699 c-0.6322400070985509,0 -1.145374038981346,-0.5274430793940091 -1.145374038981346,-1.1773193576542713 s0.5131340318827958,-1.1773193576542713 1.145374038981346,-1.1773193576542713 c0.6322400070985509,0 1.145374038981346,0.5274430793940091 1.145374038981346,1.1773193576542713 s-0.5131340318827958,1.1773193576542713 -1.145374038981346,1.1773193576542713 zM15.640314014562835,16.90496669724978 c-0.6322400070985509,0 -1.145374038981346,-0.5274430793940091 -1.145374038981346,-1.1773193576542713 s0.5131340318827958,-1.1773193576542713 1.145374038981346,-1.1773193576542713 c0.6322400070985509,0 1.145374038981346,0.5274430793940091 1.145374038981346,1.1773193576542713 s-0.5131340318827958,1.1773193576542713 -1.145374038981346,1.1773193576542713 zM15.640314014562835,12.195665414460699 c-0.6322400070985509,0 -1.145374038981346,-0.5274430793940091 -1.145374038981346,-1.1773193576542713 s0.5131340318827958,-1.1773193576542713 1.145374038981346,-1.1773193576542713 c0.6322400070985509,0 1.145374038981346,0.5274430793940091 1.145374038981346,1.1773193576542713 s-0.5131340318827958,1.1773193576542713 -1.145374038981346,1.1773193576542713 zM20.22181017048822,16.90496669724978 c-0.6322400070985509,0 -1.145374038981346,-0.5274430793940091 -1.145374038981346,-1.1773193576542713 s0.5131340318827958,-1.1773193576542713 1.145374038981346,-1.1773193576542713 c0.6322400070985509,0 1.145374038981346,0.5274430793940091 1.145374038981346,1.1773193576542713 s-0.5131340318827958,1.1773193576542713 -1.145374038981346,1.1773193576542713 zM20.22181017048822,12.195665414460699 c-0.6322400070985509,0 -1.145374038981346,-0.5274430793940091 -1.145374038981346,-1.1773193576542713 s0.5131340318827958,-1.1773193576542713 1.145374038981346,-1.1773193576542713 c0.6322400070985509,0 1.145374038981346,0.5274430793940091 1.145374038981346,1.1773193576542713 s-0.5131340318827958,1.1773193576542713 -1.145374038981346,1.1773193576542713 z" id="svg_1" class=""/></g></svg>