<svg xmlns="http://www.w3.org/2000/svg" xmlns:xlink="http://www.w3.org/1999/xlink" version="1.1" height="22" width="22" style="" xml:space="preserve"><rect id="backgroundrect" width="100%" height="100%" x="0" y="0" fill="none" stroke="none" style="" class=""/>
		
		
<g class="currentLayer" style=""><title>Layer 1</title><path horiz-adv-x="1236" d="M17.066951014039713,4.761906083634459 h-15.170629810114237 c-1.0429821403840787,0 -1.8868438196820607,0.8654066467323582 -1.8868438196820607,1.9231211490605729 l-0.009475966990718699,11.538726894363434 c0,1.0577145023282177 0.8533734046547102,1.9315119901574456 1.8963197866727786,1.9231211490605729 l4.492073212358588,-0.036097653957362134 c1.858845019101937,-2.7469356316756883 4.903884434428811,-4.401464679432282 7.738807691123754,-4.344581591691801 c0,0 0.018254645844384406,-1.7114973217011031 0.02245625384970311,-2.284438433450305 c0.0013766970911044205,-0.1945014003496085 0.11567831401877074,-0.7354763890368687 0.31499544611788033,-0.857356550451602 c0.476247797607109,-0.2912090384737277 0.81600591218187,0.01124457893185083 0.8862532221941903,0.07602868709603712 l3.6123637711428884,3.3326120809272535 v-9.348014581896223 c0,-1.0577145023282177 -0.85335552547171,-1.9231211490605729 -1.8963197866727786,-1.9231211490605729 zM17.066951014039713,8.608148381755605 l-7.5853149050571185,4.807802872651433 l-7.5853149050571185,-4.807802872651433 v-1.9231211490605729 l7.5853149050571185,4.807802872651433 l7.5853149050571185,-4.807802872651433 zM14.840152408769884,21.5136666232161 v4.047324332732005 l6.425474424576178,-6.214525252887162 l-6.425474424576178,-6.104911904852626 v3.6999136961500345 c-8.05480437148971,0 -10.002455292559382,8.626487433769139 -10.002455292559382,8.626487433769139 c0.15796258181697936,-0.28237096980570064 0.16363028282840683,-0.2711902805268693 0.3326779581062253,-0.5192950997618381 c2.2713177709432104,-3.333378756763517 5.600564679259633,-3.535014501700565 9.669777334453158,-3.535014501700565 z" id="svg_1" class=""/></g></svg>