<svg xmlns="http://www.w3.org/2000/svg" xmlns:xlink="http://www.w3.org/1999/xlink" version="1.1" height="22" width="22" style="" xml:space="preserve"><rect id="backgroundrect" width="8.627450980392158" height="8.627450980392158" x="0.3921568691730499" y="0.3921568691730499" fill="none" stroke="none" style="" class=""/>




	<g class="currentLayer" style=""><title>Layer 1</title><path d="M20.16210476087067,2.4586326667496667e-7 h-17.6544345755984 c-1.398745351814006,0 -2.4950592762087678,1.1145064329092764 -2.4950592762087678,2.476671287485605 l-0.012611154248829852,17.336757059609287 c0,1.362164854576331 1.1089250786435916,2.476671287485605 2.5076704304575976,2.476671287485605 h17.6544345755984 c1.3861341975651766,0 2.5202520503873433,-1.1145064329092764 2.5202520503873433,-2.476671287485605 v-17.336757059609287 c0,-1.362164854576331 -1.1341178528221674,-2.476671287485605 -2.5202520503873433,-2.476671287485605 zM20.16210476087067,14.860086017986948 h-5.040533635093771 c0,2.055654873012117 -1.7011767792332506,3.7150214430309205 -3.7803928427405586,3.7150214430309205 s-3.7803928427405586,-1.6593665700188027 -3.7803928427405586,-3.7150214430309205 h-5.053115255023517 v-12.383414484638072 h17.6544345755984 v12.383414484638072 zM16.381711918130108,8.668393287470423 h-2.5202520503873433 v-3.7150214430309205 h-5.040533635093771 v3.7150214430309205 h-2.5202520503873433 l5.040533635093771,4.953371598576236 l5.040533635093771,-4.953371598576236 z" id="svg_1" class=""/></g></svg>
