<svg xmlns="http://www.w3.org/2000/svg" xmlns:xlink="http://www.w3.org/1999/xlink" version="1.1" height="22" width="22" style="enable-background:new 0 0 16 16;" xml:space="preserve"><rect id="backgroundrect" width="100%" height="100%" x="0" y="0" fill="none" stroke="none" style="" class=""/>


<g class="currentLayer" style=""><title>Layer 1</title><path horiz-adv-x="1792" d="M21.36970246581024,0.6714367038013387 q0.39282732602680276,0.2919594158774207 0.32140417584011105,0.7785584423397878 l-3.047387741298828,18.6854026161549 q-0.05951929182224296,0.35278429418521734 -0.3809234676623548,0.5474239047701647 q-0.16665401710227998,0.0973198052924736 -0.3690196092979058,0.0973198052924736 q-0.13094244200893435,0 -0.28569260074676556,-0.06082487830779611 l-6.273333358064389,-2.6154697672352243 l-3.5473497926056683,3.977947041329851 q-0.21426945056007446,0.2554644888927429 -0.5594813431290826,0.2554644888927429 q-0.16665401710227998,0 -0.2737887423823172,-0.04865990264623671 q-0.22617330892452286,-0.08515482963091459 -0.35711575093345693,-0.28587692804664155 t-0.13094244200893435,-0.44402161164691134 v-5.498568999024751 l-5.618621148019717,-2.347840302680922 q-0.4404427594845974,-0.17030965926182895 -0.476154334577943,-0.6690736613857553 q-0.03571157509334572,-0.4744340508008096 0.3809234676623548,-0.7177335640319926 l19.808020318442384,-11.678376635096816 q0.4166350427557,-0.2554644888927429 0.8094623687825024,0.02432995132311835 zM17.29858290516883,18.90673522047855 l2.6307526985431284,-16.09426280024279 l-17.07013289461922,10.060434872109441 l3.999696410454713,1.6666016656336085 l10.273029768519098,-7.773419447736315 l-5.690044298206407,9.695485602262668 z" id="svg_1" class=""/></g></svg>